<svg width="1280" height="402" viewBox="0 0 1280 402" fill="none" xmlns="http://www.w3.org/2000/svg">
<rect width="1280" height="402" fill="#141414"/>
<path d="M316.174 261.346C319.738 193.987 322.049 140.553 312.135 100.901C311.358 97.7907 287.169 92.8234 276.889 103.838L276.889 133.21C276.889 137.793 275.334 140.553 271.014 140.553L236.214 140.553L242.744 126.601L242.744 113.017C242.744 100.901 214.413 103.838 213.738 108.978L208.966 144.959C201.839 227.65 208.057 252.612 226.452 287.344C236.637 302.467 259.675 304.042 283.865 302.467C300.511 301.384 315.182 280.088 316.174 261.346Z" fill="#5200FF"/>
<path fill-rule="evenodd" clip-rule="evenodd" d="M214.874 294.282L214.541 293.652C204.9 275.45 198.047 258.998 194.793 236.027C191.609 213.551 191.952 185.401 195.537 143.802L195.564 143.493L200.375 107.224C200.375 107.22 200.376 107.216 200.377 107.212C200.377 107.21 200.377 107.208 200.377 107.206C201.25 100.619 205.944 97.1133 207.804 95.8973C210.159 94.3579 212.692 93.4121 214.753 92.8062C218.989 91.5605 223.982 90.9591 228.753 91.0508C233.356 91.1392 239.191 91.8959 244.388 94.5232C250.063 97.3926 256.222 103.393 256.222 113.017L256.222 127.075L263.411 127.075L263.411 98.5254L267.035 94.6416C276.253 84.7655 289.935 83.3086 298.536 83.6024C303.245 83.7633 307.771 84.4799 311.476 85.5472C313.276 86.0656 315.34 86.7964 317.269 87.8475C318.221 88.3665 319.543 89.1791 320.848 90.3799C322.001 91.4403 324.257 93.8159 325.211 97.6318C335.723 139.679 333.159 195.422 329.633 262.059C328.981 274.393 323.961 286.931 316.658 296.634C309.515 306.125 298.488 315.022 284.74 315.917C272.299 316.727 259.035 316.828 247.167 314.364C235.239 311.888 223.075 306.459 215.272 294.872L214.874 294.282ZM263.389 133.634C263.387 133.631 263.389 133.575 263.405 133.475C263.399 133.586 263.392 133.636 263.389 133.634ZM236.214 140.553L242.743 126.601L242.743 113.017C242.743 100.901 214.413 103.838 213.738 108.978L208.965 144.959C201.839 227.65 208.056 252.612 226.452 287.344C236.636 302.467 259.675 304.042 283.865 302.467C300.511 301.384 315.182 280.088 316.174 261.346C319.738 193.987 322.048 140.553 312.135 100.901C311.358 97.7907 287.169 92.8234 276.889 103.838L276.889 133.21C276.889 137.793 275.334 140.553 271.014 140.553L236.214 140.553Z" fill="white"/>
<path d="M349.976 238.304C345.903 244.105 331.265 244.139 331.265 233.677L331.265 148.572C331.265 142.133 352.189 142.737 352.189 155.01C354.402 169.898 354.048 232.504 349.976 238.304Z" fill="#5200FF"/>
<path fill-rule="evenodd" clip-rule="evenodd" d="M324.286 249.356C320.038 245.282 317.787 239.734 317.787 233.677L317.787 148.572C317.787 138.059 326.477 133.62 330.254 132.355C334.756 130.847 339.68 130.762 343.963 131.483C348.299 132.212 353.399 134.008 357.692 137.689C362.084 141.454 365.324 147.005 365.642 153.895C366.84 163.032 367.224 182.752 366.916 200.302C366.753 209.57 366.388 218.724 365.783 226.046C365.483 229.679 365.105 233.102 364.614 235.956C364.37 237.375 364.059 238.884 363.644 240.32C363.316 241.454 362.584 243.802 361.007 246.049C357.874 250.511 353.421 252.998 349.638 254.272C345.745 255.584 341.431 256.017 337.254 255.441C333.106 254.87 328.262 253.17 324.286 249.356ZM352.189 155.01C352.189 142.737 331.265 142.133 331.265 148.572L331.265 233.677C331.265 244.139 345.903 244.105 349.976 238.304C354.048 232.504 354.402 169.898 352.189 155.01Z" fill="white"/>
<path d="M196.887 234.611C233.559 207.725 284.996 213.321 272.622 260.131C267.451 271.483 256.206 272.899 231.462 272.644C199.191 272.311 183.716 247.289 196.887 234.611Z" fill="#5200FF"/>
<path fill-rule="evenodd" clip-rule="evenodd" d="M285.361 264.679L284.888 265.717C280.395 275.583 272.712 281.143 262.844 283.766C254.249 286.05 243.44 286.246 231.323 286.121C211.823 285.92 195.764 278.211 186.577 266.636C177.453 255.142 174.429 237.52 187.541 224.901L188.19 224.275L188.918 223.742C209.515 208.641 235.568 201.558 256.35 206.643C267.097 209.272 277.129 215.422 282.993 226.15C288.792 236.76 289.327 249.675 285.653 263.575L285.361 264.679ZM272.622 260.131C284.996 213.321 233.559 207.725 196.887 234.611C183.716 247.289 199.191 272.311 231.462 272.644C256.206 272.899 267.451 271.483 272.622 260.131Z" fill="white"/>
<path d="M195.332 236.741C220.664 234.825 266.326 233.764 272.622 260.131C267.899 269.984 256.666 271.837 231.462 272.644C202.447 273.572 184.958 249.261 195.332 236.741Z" fill="#651EFB"/>
<path d="M482.54 171.963H471.781L469.847 179.886H460.757L471.993 143.157H482.54L493.776 179.886H484.475L482.54 171.963ZM473.159 165.656H481.109L477.134 149.411L473.159 165.656ZM517.632 150.816C519.628 150.816 521.104 151.469 522.058 152.777C523.029 154.066 523.515 156.16 523.515 159.057V179.886H516.334V160.011C516.334 159.022 516.236 158.324 516.042 157.918C515.865 157.511 515.494 157.308 514.929 157.308C514.487 157.308 514.028 157.441 513.551 157.706C513.092 157.953 512.579 158.43 512.014 159.137V179.886H506.131V160.011C506.131 159.022 506.034 158.324 505.84 157.918C505.663 157.511 505.292 157.308 504.727 157.308C504.285 157.308 503.826 157.441 503.349 157.706C502.889 157.953 502.377 158.43 501.812 159.137V179.886H494.524V151.743H500.672L501.229 154.473C502.112 153.271 503.004 152.361 503.905 151.743C504.806 151.125 505.875 150.816 507.112 150.816C508.172 150.816 509.073 151.089 509.815 151.637C510.574 152.167 511.113 153.006 511.431 154.155C512.279 153.165 513.215 152.361 514.24 151.743C515.265 151.125 516.395 150.816 517.632 150.816ZM540.799 150.816C543.696 150.816 546.161 151.434 548.192 152.671C550.224 153.907 551.779 155.647 552.856 157.891C553.934 160.117 554.473 162.732 554.473 165.735C554.473 170.434 553.271 174.118 550.869 176.786C548.466 179.453 545.109 180.787 540.799 180.787C536.488 180.787 533.131 179.471 530.729 176.839C528.326 174.206 527.125 170.523 527.125 165.788C527.125 162.802 527.664 160.188 528.741 157.944C529.837 155.7 531.4 153.951 533.432 152.697C535.481 151.443 537.937 150.816 540.799 150.816ZM540.799 156.99C539.085 156.99 537.813 157.697 536.983 159.11C536.17 160.506 535.764 162.732 535.764 165.788C535.764 168.897 536.17 171.15 536.983 172.546C537.813 173.941 539.085 174.639 540.799 174.639C542.512 174.639 543.776 173.941 544.588 172.546C545.419 171.15 545.834 168.88 545.834 165.735C545.834 162.696 545.419 160.479 544.588 159.084C543.776 157.688 542.512 156.99 540.799 156.99ZM560.388 179.886V151.743H567.702L568.285 155.003C569.539 153.589 570.864 152.538 572.26 151.849C573.656 151.16 575.246 150.816 577.03 150.816C579.433 150.816 581.323 151.549 582.701 153.015C584.079 154.481 584.768 156.548 584.768 159.216V179.886H576.394V161.628C576.394 159.896 576.2 158.695 575.811 158.024C575.44 157.335 574.733 156.99 573.691 156.99C572.808 156.99 571.96 157.273 571.147 157.838C570.352 158.403 569.557 159.19 568.762 160.197V179.886H560.388ZM617.157 147.238L619.118 153.386C618.129 153.775 616.971 154.057 615.646 154.234C614.321 154.411 612.776 154.499 611.009 154.499C612.776 155.259 614.118 156.204 615.037 157.335C615.973 158.448 616.441 159.914 616.441 161.734C616.441 163.553 615.956 165.179 614.984 166.61C614.012 168.023 612.634 169.136 610.85 169.949C609.066 170.761 606.954 171.168 604.516 171.168C603.35 171.168 602.264 171.062 601.257 170.85C600.639 171.168 600.329 171.706 600.329 172.466C600.329 172.908 600.506 173.305 600.859 173.659C601.23 174.012 602.087 174.189 603.43 174.189H608.041C611.309 174.189 613.915 174.957 615.858 176.494C617.802 178.031 618.773 179.974 618.773 182.324C618.773 185.204 617.51 187.474 614.984 189.135C612.458 190.795 608.703 191.626 603.721 191.626C600.117 191.626 597.326 191.255 595.347 190.513C593.386 189.788 592.017 188.746 591.24 187.386C590.48 186.043 590.1 184.444 590.1 182.589H597.52C597.52 183.402 597.679 184.064 597.997 184.577C598.333 185.107 598.96 185.495 599.879 185.743C600.815 185.99 602.167 186.114 603.933 186.114C605.718 186.114 607.078 185.972 608.014 185.69C608.951 185.407 609.587 185.018 609.922 184.524C610.276 184.047 610.452 183.508 610.452 182.907C610.452 182.077 610.126 181.405 609.472 180.893C608.818 180.381 607.785 180.125 606.371 180.125H601.893C598.854 180.125 596.646 179.568 595.268 178.455C593.89 177.324 593.201 176.008 593.201 174.507C593.201 173.464 593.475 172.475 594.022 171.539C594.588 170.602 595.374 169.816 596.381 169.18C594.579 168.226 593.289 167.104 592.512 165.815C591.735 164.507 591.346 162.944 591.346 161.124C591.346 159.004 591.885 157.184 592.962 155.665C594.04 154.128 595.524 152.944 597.414 152.114C599.322 151.284 601.495 150.869 603.933 150.869C606.036 150.904 607.864 150.763 609.419 150.445C610.974 150.109 612.369 149.658 613.606 149.093C614.843 148.51 616.026 147.892 617.157 147.238ZM604.145 156.301C602.82 156.301 601.769 156.725 600.992 157.573C600.215 158.403 599.826 159.552 599.826 161.018C599.826 162.573 600.223 163.765 601.018 164.596C601.813 165.426 602.856 165.841 604.145 165.841C607.007 165.841 608.438 164.198 608.438 160.912C608.438 157.838 607.007 156.301 604.145 156.301ZM679.947 143.157V166.663C679.947 170.956 678.657 174.365 676.078 176.892C673.516 179.418 669.886 180.681 665.186 180.681C662.819 180.681 660.77 180.381 659.038 179.78C657.325 179.162 655.673 178.314 654.083 177.236L657.395 171.883C658.65 172.749 659.825 173.358 660.92 173.712C662.015 174.047 663.261 174.215 664.656 174.215C666.547 174.215 668.119 173.614 669.373 172.413C670.645 171.194 671.281 169.313 671.281 166.769V149.517H659.992V143.157H679.947ZM713.899 169.154C713.899 171.433 713.299 173.447 712.097 175.196C710.914 176.945 709.209 178.314 706.983 179.303C704.757 180.292 702.08 180.787 698.953 180.787C695.491 180.787 692.584 180.284 690.235 179.277C687.903 178.252 685.968 176.989 684.431 175.487L688.83 170.611C690.191 171.795 691.692 172.713 693.335 173.367C694.978 174.003 696.78 174.321 698.741 174.321C700.561 174.321 702.036 173.932 703.167 173.155C704.297 172.36 704.863 171.247 704.863 169.816C704.863 168.473 704.386 167.422 703.432 166.663C702.495 165.903 700.746 165.134 698.185 164.357C693.892 163.05 690.835 161.513 689.016 159.746C687.214 157.962 686.313 155.674 686.313 152.883C686.313 150.639 686.931 148.722 688.168 147.132C689.422 145.542 691.1 144.332 693.203 143.502C695.305 142.654 697.619 142.23 700.146 142.23C702.99 142.23 705.499 142.645 707.672 143.475C709.845 144.288 711.726 145.454 713.316 146.973L709.209 151.69C707.972 150.648 706.638 149.879 705.207 149.385C703.776 148.872 702.319 148.616 700.835 148.616C699.174 148.616 697.84 148.925 696.833 149.544C695.826 150.144 695.323 151.036 695.323 152.22C695.323 152.997 695.544 153.651 695.985 154.181C696.427 154.711 697.195 155.215 698.291 155.692C699.386 156.151 700.905 156.69 702.849 157.308C705.163 158.015 707.142 158.863 708.785 159.852C710.445 160.824 711.709 162.052 712.574 163.536C713.458 165.02 713.899 166.892 713.899 169.154Z" fill="white"/>
<path d="M469.692 223.543V238.099H467.316V223.543H462.228V221.563H474.864L474.612 223.543H469.692ZM480.327 220.135V227.095C480.831 226.455 481.435 225.971 482.139 225.643C482.851 225.315 483.575 225.151 484.311 225.151C485.527 225.151 486.423 225.483 486.999 226.147C487.575 226.803 487.863 227.719 487.863 228.895V238.099H485.559V229.099C485.559 228.339 485.395 227.791 485.067 227.455C484.747 227.111 484.235 226.939 483.531 226.939C482.859 226.939 482.239 227.151 481.671 227.575C481.111 227.999 480.663 228.459 480.327 228.955V238.099H478.023V220.387L480.327 220.135ZM494.273 232.555C494.337 233.947 494.713 234.959 495.401 235.591C496.097 236.223 496.921 236.539 497.873 236.539C498.505 236.539 499.085 236.443 499.613 236.251C500.141 236.059 500.677 235.779 501.221 235.411L502.265 236.863C501.673 237.335 500.989 237.711 500.213 237.991C499.437 238.263 498.633 238.399 497.801 238.399C496.537 238.399 495.461 238.123 494.573 237.571C493.693 237.011 493.021 236.235 492.557 235.243C492.101 234.251 491.873 233.099 491.873 231.787C491.873 230.515 492.101 229.379 492.557 228.379C493.021 227.379 493.673 226.591 494.513 226.015C495.353 225.439 496.353 225.151 497.513 225.151C499.145 225.151 500.429 225.711 501.365 226.831C502.309 227.943 502.781 229.467 502.781 231.403C502.781 231.619 502.777 231.827 502.769 232.027C502.761 232.227 502.749 232.403 502.733 232.555H494.273ZM497.537 226.951C496.633 226.951 495.885 227.271 495.293 227.911C494.701 228.551 494.361 229.539 494.273 230.875H500.561C500.537 229.595 500.257 228.623 499.721 227.959C499.193 227.287 498.465 226.951 497.537 226.951ZM529.703 225.151C530.135 225.151 530.539 225.247 530.915 225.439C531.299 225.631 531.607 225.983 531.839 226.495C532.071 226.999 532.187 227.731 532.187 228.691V238.099H530.087V229.027C530.087 228.291 530.039 227.763 529.943 227.443C529.855 227.115 529.599 226.951 529.175 226.951C528.823 226.951 528.471 227.059 528.119 227.275C527.775 227.491 527.439 227.851 527.111 228.355V238.099H525.095V229.027C525.095 228.291 525.047 227.763 524.951 227.443C524.863 227.115 524.607 226.951 524.183 226.951C523.823 226.951 523.471 227.059 523.127 227.275C522.783 227.491 522.447 227.851 522.119 228.355V238.099H520.019V225.451H521.795L521.939 226.867C522.291 226.379 522.679 225.971 523.103 225.643C523.535 225.315 524.059 225.151 524.675 225.151C525.155 225.151 525.599 225.267 526.007 225.499C526.423 225.731 526.727 226.163 526.919 226.795C527.263 226.307 527.655 225.911 528.095 225.607C528.535 225.303 529.071 225.151 529.703 225.151ZM540.517 225.151C542.325 225.151 543.697 225.751 544.633 226.951C545.577 228.151 546.049 229.755 546.049 231.763C546.049 233.067 545.833 234.219 545.401 235.219C544.977 236.219 544.353 236.999 543.529 237.559C542.705 238.119 541.693 238.399 540.493 238.399C538.685 238.399 537.305 237.799 536.353 236.599C535.409 235.399 534.937 233.795 534.937 231.787C534.937 230.475 535.149 229.323 535.573 228.331C536.005 227.331 536.633 226.551 537.457 225.991C538.289 225.431 539.309 225.151 540.517 225.151ZM540.517 226.987C539.477 226.987 538.693 227.379 538.165 228.163C537.637 228.939 537.373 230.147 537.373 231.787C537.373 233.411 537.633 234.615 538.153 235.399C538.673 236.175 539.453 236.563 540.493 236.563C541.533 236.563 542.313 236.175 542.833 235.399C543.353 234.615 543.613 233.403 543.613 231.763C543.613 230.131 543.353 228.927 542.833 228.151C542.313 227.375 541.541 226.987 540.517 226.987ZM554.404 236.563C555.324 236.563 556.048 236.395 556.576 236.059C557.112 235.723 557.38 235.267 557.38 234.691C557.38 234.323 557.308 234.011 557.164 233.755C557.028 233.491 556.74 233.251 556.3 233.035C555.868 232.811 555.212 232.587 554.332 232.363C553.468 232.147 552.716 231.895 552.076 231.607C551.444 231.319 550.952 230.943 550.6 230.479C550.256 230.015 550.084 229.415 550.084 228.679C550.084 227.607 550.532 226.751 551.428 226.111C552.324 225.471 553.512 225.151 554.992 225.151C556.032 225.151 556.936 225.291 557.704 225.571C558.472 225.843 559.128 226.179 559.672 226.579L558.688 228.079C558.2 227.759 557.664 227.495 557.08 227.287C556.504 227.071 555.824 226.963 555.04 226.963C554.104 226.963 553.436 227.107 553.036 227.395C552.644 227.675 552.448 228.047 552.448 228.511C552.448 228.863 552.544 229.155 552.736 229.387C552.936 229.611 553.276 229.819 553.756 230.011C554.236 230.195 554.9 230.403 555.748 230.635C556.572 230.859 557.292 231.123 557.908 231.427C558.524 231.731 559 232.131 559.336 232.627C559.68 233.115 559.852 233.759 559.852 234.559C559.852 235.463 559.592 236.199 559.072 236.767C558.552 237.327 557.876 237.739 557.044 238.003C556.22 238.267 555.34 238.399 554.404 238.399C553.252 238.399 552.26 238.231 551.428 237.895C550.604 237.559 549.912 237.147 549.352 236.659L550.624 235.195C551.112 235.603 551.676 235.935 552.316 236.191C552.964 236.439 553.66 236.563 554.404 236.563ZM574.639 237.451C574.191 237.739 573.651 237.967 573.019 238.135C572.395 238.311 571.763 238.399 571.123 238.399C569.715 238.399 568.635 238.031 567.883 237.295C567.139 236.559 566.767 235.603 566.767 234.427V227.179H563.899V225.451H566.767V222.595L569.071 222.319V225.451H573.391L573.127 227.179H569.071V234.403C569.071 235.099 569.247 235.623 569.599 235.975C569.959 236.327 570.555 236.503 571.387 236.503C571.851 236.503 572.279 236.451 572.671 236.347C573.071 236.235 573.439 236.087 573.775 235.903L574.639 237.451ZM599.028 236.455C599.644 236.455 600.216 236.355 600.744 236.155C601.28 235.947 601.78 235.679 602.244 235.351L603.348 236.851C602.788 237.315 602.116 237.691 601.332 237.979C600.556 238.259 599.776 238.399 598.992 238.399C597.72 238.399 596.632 238.127 595.728 237.583C594.832 237.039 594.148 236.275 593.676 235.291C593.204 234.307 592.968 233.155 592.968 231.835C592.968 230.555 593.204 229.415 593.676 228.415C594.156 227.407 594.848 226.611 595.752 226.027C596.656 225.443 597.748 225.151 599.028 225.151C600.676 225.151 602.108 225.647 603.324 226.639L602.232 228.139C601.168 227.403 600.104 227.035 599.04 227.035C597.984 227.035 597.12 227.427 596.448 228.211C595.776 228.995 595.44 230.203 595.44 231.835C595.44 233.475 595.776 234.655 596.448 235.375C597.128 236.095 597.988 236.455 599.028 236.455ZM612.47 225.151C614.278 225.151 615.65 225.751 616.586 226.951C617.53 228.151 618.002 229.755 618.002 231.763C618.002 233.067 617.786 234.219 617.354 235.219C616.93 236.219 616.306 236.999 615.482 237.559C614.658 238.119 613.646 238.399 612.446 238.399C610.638 238.399 609.258 237.799 608.306 236.599C607.362 235.399 606.89 233.795 606.89 231.787C606.89 230.475 607.102 229.323 607.526 228.331C607.958 227.331 608.586 226.551 609.41 225.991C610.242 225.431 611.262 225.151 612.47 225.151ZM612.47 226.987C611.43 226.987 610.646 227.379 610.118 228.163C609.59 228.939 609.326 230.147 609.326 231.787C609.326 233.411 609.586 234.615 610.106 235.399C610.626 236.175 611.406 236.563 612.446 236.563C613.486 236.563 614.266 236.175 614.786 235.399C615.306 234.615 615.566 233.403 615.566 231.763C615.566 230.131 615.306 228.927 614.786 228.151C614.266 227.375 613.494 226.987 612.47 226.987ZM630.437 225.151C630.869 225.151 631.273 225.247 631.649 225.439C632.033 225.631 632.341 225.983 632.573 226.495C632.805 226.999 632.921 227.731 632.921 228.691V238.099H630.821V229.027C630.821 228.291 630.773 227.763 630.677 227.443C630.589 227.115 630.333 226.951 629.909 226.951C629.557 226.951 629.205 227.059 628.853 227.275C628.509 227.491 628.173 227.851 627.845 228.355V238.099H625.829V229.027C625.829 228.291 625.781 227.763 625.685 227.443C625.597 227.115 625.341 226.951 624.917 226.951C624.557 226.951 624.205 227.059 623.861 227.275C623.517 227.491 623.181 227.851 622.853 228.355V238.099H620.753V225.451H622.529L622.673 226.867C623.025 226.379 623.413 225.971 623.837 225.643C624.269 225.315 624.793 225.151 625.409 225.151C625.889 225.151 626.333 225.267 626.741 225.499C627.157 225.731 627.461 226.163 627.653 226.795C627.997 226.307 628.389 225.911 628.829 225.607C629.269 225.303 629.805 225.151 630.437 225.151ZM642.2 225.151C643.32 225.151 644.216 225.427 644.888 225.979C645.56 226.523 646.044 227.291 646.34 228.283C646.636 229.267 646.784 230.427 646.784 231.763C646.784 233.043 646.604 234.183 646.244 235.183C645.884 236.183 645.344 236.971 644.624 237.547C643.904 238.115 643 238.399 641.912 238.399C640.552 238.399 639.456 237.919 638.624 236.959V242.947L636.32 243.223V225.451H638.3L638.468 227.155C639.444 225.819 640.688 225.151 642.2 225.151ZM641.612 226.963C640.956 226.963 640.376 227.163 639.872 227.563C639.368 227.955 638.952 228.403 638.624 228.907V235.027C638.944 235.499 639.336 235.871 639.8 236.143C640.264 236.407 640.78 236.539 641.348 236.539C642.34 236.539 643.088 236.155 643.592 235.387C644.096 234.611 644.348 233.403 644.348 231.763C644.348 230.123 644.124 228.915 643.676 228.139C643.228 227.355 642.54 226.963 641.612 226.963ZM650.83 238.099V236.395H652.75V227.155H650.83V225.451H654.514L654.934 228.415C655.414 227.367 656.002 226.563 656.698 226.003C657.402 225.435 658.314 225.151 659.434 225.151C659.802 225.151 660.126 225.179 660.406 225.235C660.694 225.291 660.986 225.363 661.282 225.451L660.922 229.891H659.146V227.251H659.134C657.238 227.251 655.878 228.607 655.054 231.319V236.395H657.622V238.099H650.83ZM666.961 232.555C667.025 233.947 667.401 234.959 668.089 235.591C668.785 236.223 669.609 236.539 670.561 236.539C671.193 236.539 671.773 236.443 672.301 236.251C672.829 236.059 673.365 235.779 673.909 235.411L674.953 236.863C674.361 237.335 673.677 237.711 672.901 237.991C672.125 238.263 671.321 238.399 670.489 238.399C669.225 238.399 668.149 238.123 667.261 237.571C666.381 237.011 665.709 236.235 665.245 235.243C664.789 234.251 664.561 233.099 664.561 231.787C664.561 230.515 664.789 229.379 665.245 228.379C665.709 227.379 666.361 226.591 667.201 226.015C668.041 225.439 669.041 225.151 670.201 225.151C671.833 225.151 673.117 225.711 674.053 226.831C674.997 227.943 675.469 229.467 675.469 231.403C675.469 231.619 675.465 231.827 675.457 232.027C675.449 232.227 675.437 232.403 675.421 232.555H666.961ZM670.225 226.951C669.321 226.951 668.573 227.271 667.981 227.911C667.389 228.551 667.049 229.539 666.961 230.875H673.249C673.225 229.595 672.945 228.623 672.409 227.959C671.881 227.287 671.153 226.951 670.225 226.951ZM681.796 220.135V227.095C682.3 226.455 682.904 225.971 683.608 225.643C684.32 225.315 685.044 225.151 685.78 225.151C686.996 225.151 687.892 225.483 688.468 226.147C689.044 226.803 689.332 227.719 689.332 228.895V238.099H687.028V229.099C687.028 228.339 686.864 227.791 686.536 227.455C686.216 227.111 685.704 226.939 685 226.939C684.328 226.939 683.708 227.151 683.14 227.575C682.58 227.999 682.132 228.459 681.796 228.955V238.099H679.492V220.387L681.796 220.135ZM695.742 232.555C695.806 233.947 696.182 234.959 696.87 235.591C697.566 236.223 698.39 236.539 699.342 236.539C699.974 236.539 700.554 236.443 701.082 236.251C701.61 236.059 702.146 235.779 702.69 235.411L703.734 236.863C703.142 237.335 702.458 237.711 701.682 237.991C700.906 238.263 700.102 238.399 699.27 238.399C698.006 238.399 696.93 238.123 696.042 237.571C695.162 237.011 694.49 236.235 694.026 235.243C693.57 234.251 693.342 233.099 693.342 231.787C693.342 230.515 693.57 229.379 694.026 228.379C694.49 227.379 695.142 226.591 695.982 226.015C696.822 225.439 697.822 225.151 698.982 225.151C700.614 225.151 701.898 225.711 702.834 226.831C703.778 227.943 704.25 229.467 704.25 231.403C704.25 231.619 704.246 231.827 704.238 232.027C704.23 232.227 704.218 232.403 704.202 232.555H695.742ZM699.006 226.951C698.102 226.951 697.354 227.271 696.762 227.911C696.17 228.551 695.83 229.539 695.742 230.875H702.03C702.006 229.595 701.726 228.623 701.19 227.959C700.662 227.287 699.934 226.951 699.006 226.951ZM708.273 238.099V225.451H710.253L710.421 227.155C710.941 226.507 711.573 226.011 712.317 225.667C713.069 225.323 713.817 225.151 714.561 225.151C715.777 225.151 716.673 225.483 717.249 226.147C717.825 226.803 718.113 227.719 718.113 228.895V238.099H715.809V230.311C715.809 229.511 715.761 228.863 715.665 228.367C715.577 227.871 715.389 227.511 715.101 227.287C714.813 227.055 714.377 226.939 713.793 226.939C713.105 226.939 712.481 227.151 711.921 227.575C711.361 227.999 710.913 228.455 710.577 228.943V238.099H708.273ZM727.091 236.563C728.011 236.563 728.735 236.395 729.263 236.059C729.799 235.723 730.067 235.267 730.067 234.691C730.067 234.323 729.995 234.011 729.851 233.755C729.715 233.491 729.427 233.251 728.987 233.035C728.555 232.811 727.899 232.587 727.019 232.363C726.155 232.147 725.403 231.895 724.763 231.607C724.131 231.319 723.639 230.943 723.287 230.479C722.943 230.015 722.771 229.415 722.771 228.679C722.771 227.607 723.219 226.751 724.115 226.111C725.011 225.471 726.199 225.151 727.679 225.151C728.719 225.151 729.623 225.291 730.391 225.571C731.159 225.843 731.815 226.179 732.359 226.579L731.375 228.079C730.887 227.759 730.351 227.495 729.767 227.287C729.191 227.071 728.511 226.963 727.727 226.963C726.791 226.963 726.123 227.107 725.723 227.395C725.331 227.675 725.135 228.047 725.135 228.511C725.135 228.863 725.231 229.155 725.423 229.387C725.623 229.611 725.963 229.819 726.443 230.011C726.923 230.195 727.587 230.403 728.435 230.635C729.259 230.859 729.979 231.123 730.595 231.427C731.211 231.731 731.687 232.131 732.023 232.627C732.367 233.115 732.539 233.759 732.539 234.559C732.539 235.463 732.279 236.199 731.759 236.767C731.239 237.327 730.563 237.739 729.731 238.003C728.907 238.267 728.027 238.399 727.091 238.399C725.939 238.399 724.947 238.231 724.115 237.895C723.291 237.559 722.599 237.147 722.039 236.659L723.311 235.195C723.799 235.603 724.363 235.935 725.003 236.191C725.651 236.439 726.347 236.563 727.091 236.563ZM741.962 219.403C742.442 219.403 742.826 219.551 743.114 219.847C743.41 220.143 743.558 220.503 743.558 220.927C743.558 221.367 743.41 221.739 743.114 222.043C742.826 222.339 742.442 222.487 741.962 222.487C741.49 222.487 741.106 222.339 740.81 222.043C740.522 221.739 740.378 221.367 740.378 220.927C740.378 220.503 740.522 220.143 740.81 219.847C741.106 219.551 741.49 219.403 741.962 219.403ZM743.678 225.451V236.347H747.194V238.099H737.522V236.347H741.374V227.203H737.642V225.451H743.678ZM762.221 225.451L757.685 238.099H754.997L750.485 225.451H752.933L756.401 236.095L759.857 225.451H762.221ZM767.695 232.555C767.759 233.947 768.135 234.959 768.823 235.591C769.519 236.223 770.343 236.539 771.295 236.539C771.927 236.539 772.507 236.443 773.035 236.251C773.563 236.059 774.099 235.779 774.643 235.411L775.687 236.863C775.095 237.335 774.411 237.711 773.635 237.991C772.859 238.263 772.055 238.399 771.223 238.399C769.959 238.399 768.883 238.123 767.995 237.571C767.115 237.011 766.443 236.235 765.979 235.243C765.523 234.251 765.295 233.099 765.295 231.787C765.295 230.515 765.523 229.379 765.979 228.379C766.443 227.379 767.095 226.591 767.935 226.015C768.775 225.439 769.775 225.151 770.935 225.151C772.567 225.151 773.851 225.711 774.787 226.831C775.731 227.943 776.203 229.467 776.203 231.403C776.203 231.619 776.199 231.827 776.191 232.027C776.183 232.227 776.171 232.403 776.155 232.555H767.695ZM770.959 226.951C770.055 226.951 769.307 227.271 768.715 227.911C768.123 228.551 767.783 229.539 767.695 230.875H773.983C773.959 229.595 773.679 228.623 773.143 227.959C772.615 227.287 771.887 226.951 770.959 226.951ZM799.045 236.563C799.965 236.563 800.689 236.395 801.217 236.059C801.753 235.723 802.021 235.267 802.021 234.691C802.021 234.323 801.949 234.011 801.805 233.755C801.669 233.491 801.381 233.251 800.941 233.035C800.509 232.811 799.853 232.587 798.973 232.363C798.109 232.147 797.357 231.895 796.717 231.607C796.085 231.319 795.593 230.943 795.241 230.479C794.897 230.015 794.725 229.415 794.725 228.679C794.725 227.607 795.173 226.751 796.069 226.111C796.965 225.471 798.153 225.151 799.633 225.151C800.673 225.151 801.577 225.291 802.345 225.571C803.113 225.843 803.769 226.179 804.313 226.579L803.329 228.079C802.841 227.759 802.305 227.495 801.721 227.287C801.145 227.071 800.465 226.963 799.681 226.963C798.745 226.963 798.077 227.107 797.677 227.395C797.285 227.675 797.089 228.047 797.089 228.511C797.089 228.863 797.185 229.155 797.377 229.387C797.577 229.611 797.917 229.819 798.397 230.011C798.877 230.195 799.541 230.403 800.389 230.635C801.213 230.859 801.933 231.123 802.549 231.427C803.165 231.731 803.641 232.131 803.977 232.627C804.321 233.115 804.493 233.759 804.493 234.559C804.493 235.463 804.233 236.199 803.713 236.767C803.193 237.327 802.517 237.739 801.685 238.003C800.861 238.267 799.981 238.399 799.045 238.399C797.893 238.399 796.901 238.231 796.069 237.895C795.245 237.559 794.553 237.147 793.993 236.659L795.265 235.195C795.753 235.603 796.317 235.935 796.957 236.191C797.605 236.439 798.301 236.563 799.045 236.563ZM810.867 232.555C810.931 233.947 811.307 234.959 811.995 235.591C812.691 236.223 813.515 236.539 814.467 236.539C815.099 236.539 815.679 236.443 816.207 236.251C816.735 236.059 817.271 235.779 817.815 235.411L818.859 236.863C818.267 237.335 817.583 237.711 816.807 237.991C816.031 238.263 815.227 238.399 814.395 238.399C813.131 238.399 812.055 238.123 811.167 237.571C810.287 237.011 809.615 236.235 809.151 235.243C808.695 234.251 808.467 233.099 808.467 231.787C808.467 230.515 808.695 229.379 809.151 228.379C809.615 227.379 810.267 226.591 811.107 226.015C811.947 225.439 812.947 225.151 814.107 225.151C815.739 225.151 817.023 225.711 817.959 226.831C818.903 227.943 819.375 229.467 819.375 231.403C819.375 231.619 819.371 231.827 819.363 232.027C819.355 232.227 819.343 232.403 819.327 232.555H810.867ZM814.131 226.951C813.227 226.951 812.479 227.271 811.887 227.911C811.295 228.551 810.955 229.539 810.867 230.875H817.155C817.131 229.595 816.851 228.623 816.315 227.959C815.787 227.287 815.059 226.951 814.131 226.951ZM833.67 237.451C833.222 237.739 832.682 237.967 832.05 238.135C831.426 238.311 830.794 238.399 830.154 238.399C828.746 238.399 827.666 238.031 826.914 237.295C826.17 236.559 825.798 235.603 825.798 234.427V227.179H822.93V225.451H825.798V222.595L828.102 222.319V225.451H832.422L832.158 227.179H828.102V234.403C828.102 235.099 828.278 235.623 828.63 235.975C828.99 236.327 829.586 236.503 830.418 236.503C830.882 236.503 831.31 236.451 831.702 236.347C832.102 236.235 832.47 236.087 832.806 235.903L833.67 237.451ZM857.111 225.151C858.919 225.151 860.291 225.751 861.227 226.951C862.171 228.151 862.643 229.755 862.643 231.763C862.643 233.067 862.427 234.219 861.995 235.219C861.571 236.219 860.947 236.999 860.123 237.559C859.299 238.119 858.287 238.399 857.087 238.399C855.279 238.399 853.899 237.799 852.947 236.599C852.003 235.399 851.531 233.795 851.531 231.787C851.531 230.475 851.743 229.323 852.167 228.331C852.599 227.331 853.227 226.551 854.051 225.991C854.883 225.431 855.903 225.151 857.111 225.151ZM857.111 226.987C856.071 226.987 855.287 227.379 854.759 228.163C854.231 228.939 853.967 230.147 853.967 231.787C853.967 233.411 854.227 234.615 854.747 235.399C855.267 236.175 856.047 236.563 857.087 236.563C858.127 236.563 858.907 236.175 859.427 235.399C859.947 234.615 860.207 233.403 860.207 231.763C860.207 230.131 859.947 228.927 859.427 228.151C858.907 227.375 858.135 226.987 857.111 226.987ZM874.142 220.087C874.862 220.087 875.51 220.151 876.086 220.279C876.662 220.399 877.206 220.571 877.718 220.795L876.998 222.451C876.59 222.267 876.154 222.135 875.69 222.055C875.234 221.967 874.766 221.923 874.286 221.923C872.574 221.923 871.718 222.607 871.718 223.975V226.399H875.99L875.738 228.151H871.718V238.099H869.426V228.151H866.462V226.399H869.426V223.987C869.426 223.203 869.626 222.519 870.026 221.935C870.434 221.351 870.99 220.899 871.694 220.579C872.406 220.251 873.222 220.087 874.142 220.087ZM905.095 221.563V232.531C905.095 233.267 904.995 233.983 904.795 234.679C904.595 235.375 904.267 236.003 903.811 236.563C903.363 237.123 902.767 237.567 902.023 237.895C901.279 238.223 900.367 238.387 899.287 238.387C897.575 238.387 896.035 237.883 894.667 236.875L895.687 235.327C896.375 235.775 897.007 236.075 897.583 236.227C898.167 236.379 898.715 236.455 899.227 236.455C900.323 236.455 901.179 236.103 901.795 235.399C902.411 234.687 902.719 233.699 902.719 232.435V223.447H897.787V221.563H905.095ZM919.066 235.195C919.066 235.699 919.146 236.067 919.306 236.299C919.466 236.523 919.718 236.691 920.062 236.803L919.522 238.387C918.946 238.315 918.442 238.143 918.01 237.871C917.586 237.599 917.274 237.183 917.074 236.623C916.618 237.215 916.042 237.659 915.346 237.955C914.65 238.251 913.894 238.399 913.078 238.399C911.806 238.399 910.802 238.039 910.066 237.319C909.33 236.599 908.962 235.651 908.962 234.475C908.962 233.163 909.474 232.155 910.498 231.451C911.53 230.739 913.01 230.383 914.938 230.383H916.774V229.423C916.774 228.551 916.514 227.931 915.994 227.563C915.482 227.195 914.766 227.011 913.846 227.011C913.422 227.011 912.922 227.063 912.346 227.167C911.778 227.271 911.17 227.435 910.522 227.659L909.934 225.979C910.71 225.683 911.458 225.471 912.178 225.343C912.898 225.215 913.57 225.151 914.194 225.151C915.818 225.151 917.034 225.523 917.842 226.267C918.658 227.011 919.066 228.023 919.066 229.303V235.195ZM913.726 236.671C914.31 236.671 914.874 236.519 915.418 236.215C915.97 235.911 916.422 235.487 916.774 234.943V231.883H915.094C913.758 231.883 912.81 232.111 912.25 232.567C911.69 233.015 911.41 233.631 911.41 234.415C911.41 235.919 912.182 236.671 913.726 236.671ZM934.908 225.451L930.372 238.099H927.684L923.172 225.451H925.62L929.088 236.095L932.544 225.451H934.908ZM947.847 235.195C947.847 235.699 947.927 236.067 948.087 236.299C948.247 236.523 948.499 236.691 948.843 236.803L948.303 238.387C947.727 238.315 947.223 238.143 946.791 237.871C946.367 237.599 946.055 237.183 945.855 236.623C945.399 237.215 944.823 237.659 944.127 237.955C943.431 238.251 942.675 238.399 941.859 238.399C940.587 238.399 939.583 238.039 938.847 237.319C938.111 236.599 937.743 235.651 937.743 234.475C937.743 233.163 938.255 232.155 939.279 231.451C940.311 230.739 941.791 230.383 943.719 230.383H945.555V229.423C945.555 228.551 945.295 227.931 944.775 227.563C944.263 227.195 943.547 227.011 942.627 227.011C942.203 227.011 941.703 227.063 941.127 227.167C940.559 227.271 939.951 227.435 939.303 227.659L938.715 225.979C939.491 225.683 940.239 225.471 940.959 225.343C941.679 225.215 942.351 225.151 942.975 225.151C944.599 225.151 945.815 225.523 946.623 226.267C947.439 227.011 947.847 228.023 947.847 229.303V235.195ZM942.507 236.671C943.091 236.671 943.655 236.519 944.199 236.215C944.751 235.911 945.203 235.487 945.555 234.943V231.883H943.875C942.539 231.883 941.591 232.111 941.031 232.567C940.471 233.015 940.191 233.631 940.191 234.415C940.191 235.919 940.963 236.671 942.507 236.671ZM963.617 233.479C963.617 234.439 963.373 235.291 962.885 236.035C962.405 236.771 961.705 237.351 960.785 237.775C959.873 238.191 958.765 238.399 957.461 238.399C956.197 238.399 955.069 238.207 954.077 237.823C953.085 237.439 952.241 236.911 951.545 236.239L952.901 234.715C953.477 235.251 954.137 235.675 954.881 235.987C955.625 236.299 956.493 236.455 957.485 236.455C958.133 236.455 958.733 236.351 959.285 236.143C959.845 235.927 960.293 235.607 960.629 235.183C960.973 234.751 961.145 234.211 961.145 233.563C961.145 233.051 961.041 232.615 960.833 232.255C960.633 231.887 960.277 231.563 959.765 231.283C959.253 231.003 958.537 230.727 957.617 230.455C955.937 229.959 954.629 229.355 953.693 228.643C952.757 227.931 952.289 226.919 952.289 225.607C952.289 224.751 952.525 223.999 952.997 223.351C953.469 222.695 954.117 222.183 954.941 221.815C955.765 221.447 956.713 221.263 957.785 221.263C958.945 221.263 959.957 221.431 960.821 221.767C961.693 222.103 962.477 222.579 963.173 223.195L961.853 224.683C961.261 224.163 960.625 223.787 959.945 223.555C959.273 223.315 958.589 223.195 957.893 223.195C957.013 223.195 956.265 223.387 955.649 223.771C955.033 224.147 954.725 224.723 954.725 225.499C954.725 225.963 954.849 226.359 955.097 226.687C955.345 227.007 955.761 227.303 956.345 227.575C956.937 227.847 957.745 228.135 958.769 228.439C959.657 228.703 960.465 229.027 961.193 229.411C961.929 229.787 962.517 230.299 962.957 230.947C963.397 231.587 963.617 232.431 963.617 233.479ZM973.184 236.455C973.8 236.455 974.372 236.355 974.9 236.155C975.436 235.947 975.936 235.679 976.4 235.351L977.504 236.851C976.944 237.315 976.272 237.691 975.488 237.979C974.712 238.259 973.932 238.399 973.148 238.399C971.876 238.399 970.788 238.127 969.884 237.583C968.988 237.039 968.304 236.275 967.832 235.291C967.36 234.307 967.124 233.155 967.124 231.835C967.124 230.555 967.36 229.415 967.832 228.415C968.312 227.407 969.004 226.611 969.908 226.027C970.812 225.443 971.904 225.151 973.184 225.151C974.832 225.151 976.264 225.647 977.48 226.639L976.388 228.139C975.324 227.403 974.26 227.035 973.196 227.035C972.14 227.035 971.276 227.427 970.604 228.211C969.932 228.995 969.596 230.203 969.596 231.835C969.596 233.475 969.932 234.655 970.604 235.375C971.284 236.095 972.144 236.455 973.184 236.455ZM981.815 238.099V236.395H983.735V227.155H981.815V225.451H985.499L985.919 228.415C986.399 227.367 986.987 226.563 987.683 226.003C988.387 225.435 989.299 225.151 990.419 225.151C990.787 225.151 991.111 225.179 991.391 225.235C991.679 225.291 991.971 225.363 992.267 225.451L991.907 229.891H990.131V227.251H990.119C988.223 227.251 986.863 228.607 986.039 231.319V236.395H988.607V238.099H981.815ZM1000.99 219.403C1001.47 219.403 1001.86 219.551 1002.15 219.847C1002.44 220.143 1002.59 220.503 1002.59 220.927C1002.59 221.367 1002.44 221.739 1002.15 222.043C1001.86 222.339 1001.47 222.487 1000.99 222.487C1000.52 222.487 1000.14 222.339 999.841 222.043C999.553 221.739 999.409 221.367 999.409 220.927C999.409 220.503 999.553 220.143 999.841 219.847C1000.14 219.551 1000.52 219.403 1000.99 219.403ZM1002.71 225.451V236.347H1006.23V238.099H996.553V236.347H1000.41V227.203H996.673V225.451H1002.71ZM1016.36 225.151C1017.48 225.151 1018.37 225.427 1019.04 225.979C1019.72 226.523 1020.2 227.291 1020.5 228.283C1020.79 229.267 1020.94 230.427 1020.94 231.763C1020.94 233.043 1020.76 234.183 1020.4 235.183C1020.04 236.183 1019.5 236.971 1018.78 237.547C1018.06 238.115 1017.16 238.399 1016.07 238.399C1014.71 238.399 1013.61 237.919 1012.78 236.959V242.947L1010.48 243.223V225.451H1012.46L1012.62 227.155C1013.6 225.819 1014.84 225.151 1016.36 225.151ZM1015.77 226.963C1015.11 226.963 1014.53 227.163 1014.03 227.563C1013.52 227.955 1013.11 228.403 1012.78 228.907V235.027C1013.1 235.499 1013.49 235.871 1013.96 236.143C1014.42 236.407 1014.94 236.539 1015.5 236.539C1016.5 236.539 1017.24 236.155 1017.75 235.387C1018.25 234.611 1018.5 233.403 1018.5 231.763C1018.5 230.123 1018.28 228.915 1017.83 228.139C1017.38 227.355 1016.7 226.963 1015.77 226.963ZM1035.14 237.451C1034.69 237.739 1034.15 237.967 1033.52 238.135C1032.89 238.311 1032.26 238.399 1031.62 238.399C1030.21 238.399 1029.13 238.031 1028.38 237.295C1027.64 236.559 1027.27 235.603 1027.27 234.427V227.179H1024.4V225.451H1027.27V222.595L1029.57 222.319V225.451H1033.89L1033.63 227.179H1029.57V234.403C1029.57 235.099 1029.75 235.623 1030.1 235.975C1030.46 236.327 1031.05 236.503 1031.89 236.503C1032.35 236.503 1032.78 236.451 1033.17 236.347C1033.57 236.235 1033.94 236.087 1034.27 235.903L1035.14 237.451ZM465.936 265.451V274.355C465.936 275.155 466.096 275.731 466.416 276.083C466.744 276.427 467.248 276.599 467.928 276.599C468.568 276.599 469.18 276.411 469.764 276.035C470.356 275.659 470.816 275.211 471.144 274.691V265.451H473.448V278.099H471.468L471.3 276.431C470.812 277.071 470.204 277.559 469.476 277.895C468.756 278.231 468.024 278.399 467.28 278.399C466.056 278.399 465.14 278.067 464.532 277.403C463.932 276.739 463.632 275.819 463.632 274.643V265.451H465.936ZM488.295 277.451C487.847 277.739 487.307 277.967 486.675 278.135C486.051 278.311 485.419 278.399 484.779 278.399C483.371 278.399 482.291 278.031 481.539 277.295C480.795 276.559 480.423 275.603 480.423 274.427V267.179H477.555V265.451H480.423V262.595L482.727 262.319V265.451H487.047L486.783 267.179H482.727V274.403C482.727 275.099 482.903 275.623 483.255 275.975C483.615 276.327 484.211 276.503 485.043 276.503C485.507 276.503 485.935 276.451 486.327 276.347C486.727 276.235 487.095 276.087 487.431 275.903L488.295 277.451ZM497.321 259.403C497.801 259.403 498.185 259.551 498.473 259.847C498.769 260.143 498.917 260.503 498.917 260.927C498.917 261.367 498.769 261.739 498.473 262.043C498.185 262.339 497.801 262.487 497.321 262.487C496.849 262.487 496.465 262.339 496.169 262.043C495.881 261.739 495.737 261.367 495.737 260.927C495.737 260.503 495.881 260.143 496.169 259.847C496.465 259.551 496.849 259.403 497.321 259.403ZM499.037 265.451V276.347H502.553V278.099H492.881V276.347H496.733V267.203H493.001V265.451H499.037ZM512 260.363V274.835C512 275.443 512.188 275.875 512.564 276.131C512.94 276.379 513.424 276.503 514.016 276.503C514.392 276.503 514.748 276.467 515.084 276.395C515.428 276.315 515.764 276.207 516.092 276.071L516.692 277.715C516.34 277.899 515.9 278.059 515.372 278.195C514.844 278.331 514.248 278.399 513.584 278.399C512.392 278.399 511.444 278.067 510.74 277.403C510.044 276.739 509.696 275.827 509.696 274.667V262.115H505.844V260.363H512ZM526.103 259.403C526.583 259.403 526.967 259.551 527.255 259.847C527.551 260.143 527.699 260.503 527.699 260.927C527.699 261.367 527.551 261.739 527.255 262.043C526.967 262.339 526.583 262.487 526.103 262.487C525.631 262.487 525.247 262.339 524.951 262.043C524.663 261.739 524.519 261.367 524.519 260.927C524.519 260.503 524.663 260.143 524.951 259.847C525.247 259.551 525.631 259.403 526.103 259.403ZM527.819 265.451V276.347H531.335V278.099H521.663V276.347H525.515V267.203H521.783V265.451H527.819ZM545.857 277.451C545.409 277.739 544.869 277.967 544.237 278.135C543.613 278.311 542.981 278.399 542.341 278.399C540.933 278.399 539.853 278.031 539.101 277.295C538.357 276.559 537.985 275.603 537.985 274.427V267.179H535.117V265.451H537.985V262.595L540.289 262.319V265.451H544.609L544.345 267.179H540.289V274.403C540.289 275.099 540.465 275.623 540.817 275.975C541.177 276.327 541.773 276.503 542.605 276.503C543.069 276.503 543.497 276.451 543.889 276.347C544.289 276.235 544.657 276.087 544.993 275.903L545.857 277.451ZM554.884 259.403C555.364 259.403 555.748 259.551 556.036 259.847C556.332 260.143 556.48 260.503 556.48 260.927C556.48 261.367 556.332 261.739 556.036 262.043C555.748 262.339 555.364 262.487 554.884 262.487C554.412 262.487 554.028 262.339 553.732 262.043C553.444 261.739 553.3 261.367 553.3 260.927C553.3 260.503 553.444 260.143 553.732 259.847C554.028 259.551 554.412 259.403 554.884 259.403ZM556.6 265.451V276.347H560.116V278.099H550.444V276.347H554.296V267.203H550.564V265.451H556.6ZM566.227 272.555C566.291 273.947 566.667 274.959 567.355 275.591C568.051 276.223 568.875 276.539 569.827 276.539C570.459 276.539 571.039 276.443 571.567 276.251C572.095 276.059 572.631 275.779 573.175 275.411L574.219 276.863C573.627 277.335 572.943 277.711 572.167 277.991C571.391 278.263 570.587 278.399 569.755 278.399C568.491 278.399 567.415 278.123 566.527 277.571C565.647 277.011 564.975 276.235 564.511 275.243C564.055 274.251 563.827 273.099 563.827 271.787C563.827 270.515 564.055 269.379 564.511 268.379C564.975 267.379 565.627 266.591 566.467 266.015C567.307 265.439 568.307 265.151 569.467 265.151C571.099 265.151 572.383 265.711 573.319 266.831C574.263 267.943 574.735 269.467 574.735 271.403C574.735 271.619 574.731 271.827 574.723 272.027C574.715 272.227 574.703 272.403 574.687 272.555H566.227ZM569.491 266.951C568.587 266.951 567.839 267.271 567.247 267.911C566.655 268.551 566.315 269.539 566.227 270.875H572.515C572.491 269.595 572.211 268.623 571.675 267.959C571.147 267.287 570.419 266.951 569.491 266.951ZM583.185 276.563C584.105 276.563 584.829 276.395 585.357 276.059C585.893 275.723 586.161 275.267 586.161 274.691C586.161 274.323 586.089 274.011 585.945 273.755C585.809 273.491 585.521 273.251 585.081 273.035C584.649 272.811 583.993 272.587 583.113 272.363C582.249 272.147 581.497 271.895 580.857 271.607C580.225 271.319 579.733 270.943 579.381 270.479C579.037 270.015 578.865 269.415 578.865 268.679C578.865 267.607 579.313 266.751 580.209 266.111C581.105 265.471 582.293 265.151 583.773 265.151C584.813 265.151 585.717 265.291 586.485 265.571C587.253 265.843 587.909 266.179 588.453 266.579L587.469 268.079C586.981 267.759 586.445 267.495 585.861 267.287C585.285 267.071 584.605 266.963 583.821 266.963C582.885 266.963 582.217 267.107 581.817 267.395C581.425 267.675 581.229 268.047 581.229 268.511C581.229 268.863 581.325 269.155 581.517 269.387C581.717 269.611 582.057 269.819 582.537 270.011C583.017 270.195 583.681 270.403 584.529 270.635C585.353 270.859 586.073 271.123 586.689 271.427C587.305 271.731 587.781 272.131 588.117 272.627C588.461 273.115 588.633 273.759 588.633 274.559C588.633 275.463 588.373 276.199 587.853 276.767C587.333 277.327 586.657 277.739 585.825 278.003C585.001 278.267 584.121 278.399 583.185 278.399C582.033 278.399 581.041 278.231 580.209 277.895C579.385 277.559 578.693 277.147 578.133 276.659L579.405 275.195C579.893 275.603 580.457 275.935 581.097 276.191C581.745 276.439 582.441 276.563 583.185 276.563ZM615.11 260.087C615.83 260.087 616.478 260.151 617.054 260.279C617.63 260.399 618.174 260.571 618.686 260.795L617.966 262.451C617.558 262.267 617.122 262.135 616.658 262.055C616.202 261.967 615.734 261.923 615.254 261.923C613.542 261.923 612.686 262.607 612.686 263.975V266.399H616.958L616.706 268.151H612.686V278.099H610.394V268.151H607.43V266.399H610.394V263.987C610.394 263.203 610.594 262.519 610.994 261.935C611.402 261.351 611.958 260.899 612.662 260.579C613.374 260.251 614.19 260.087 615.11 260.087ZM626.861 265.151C628.669 265.151 630.041 265.751 630.977 266.951C631.921 268.151 632.393 269.755 632.393 271.763C632.393 273.067 632.177 274.219 631.745 275.219C631.321 276.219 630.697 276.999 629.873 277.559C629.049 278.119 628.037 278.399 626.837 278.399C625.029 278.399 623.649 277.799 622.697 276.599C621.753 275.399 621.281 273.795 621.281 271.787C621.281 270.475 621.493 269.323 621.917 268.331C622.349 267.331 622.977 266.551 623.801 265.991C624.633 265.431 625.653 265.151 626.861 265.151ZM626.861 266.987C625.821 266.987 625.037 267.379 624.509 268.163C623.981 268.939 623.717 270.147 623.717 271.787C623.717 273.411 623.977 274.615 624.497 275.399C625.017 276.175 625.797 276.563 626.837 276.563C627.877 276.563 628.657 276.175 629.177 275.399C629.697 274.615 629.957 273.403 629.957 271.763C629.957 270.131 629.697 268.927 629.177 268.151C628.657 267.375 627.885 266.987 626.861 266.987ZM636.44 278.099V276.395H638.36V267.155H636.44V265.451H640.124L640.544 268.415C641.024 267.367 641.612 266.563 642.308 266.003C643.012 265.435 643.924 265.151 645.044 265.151C645.412 265.151 645.736 265.179 646.016 265.235C646.304 265.291 646.596 265.363 646.892 265.451L646.532 269.891H644.756V267.251H644.744C642.848 267.251 641.488 268.607 640.664 271.319V276.395H643.232V278.099H636.44ZM673.081 273.983H666.817L665.569 278.099H663.181L668.509 261.563H671.509L676.849 278.099H674.329L673.081 273.983ZM667.369 272.075H672.529L669.961 263.483L667.369 272.075ZM688 265.151C688.432 265.151 688.836 265.247 689.212 265.439C689.596 265.631 689.904 265.983 690.136 266.495C690.368 266.999 690.484 267.731 690.484 268.691V278.099H688.384V269.027C688.384 268.291 688.336 267.763 688.24 267.443C688.152 267.115 687.896 266.951 687.472 266.951C687.12 266.951 686.768 267.059 686.416 267.275C686.072 267.491 685.736 267.851 685.408 268.355V278.099H683.392V269.027C683.392 268.291 683.344 267.763 683.248 267.443C683.16 267.115 682.904 266.951 682.48 266.951C682.12 266.951 681.768 267.059 681.424 267.275C681.08 267.491 680.744 267.851 680.416 268.355V278.099H678.316V265.451H680.092L680.236 266.867C680.588 266.379 680.976 265.971 681.4 265.643C681.832 265.315 682.356 265.151 682.972 265.151C683.452 265.151 683.896 265.267 684.304 265.499C684.72 265.731 685.024 266.163 685.216 266.795C685.56 266.307 685.952 265.911 686.392 265.607C686.832 265.303 687.368 265.151 688 265.151ZM698.814 265.151C700.622 265.151 701.994 265.751 702.93 266.951C703.874 268.151 704.346 269.755 704.346 271.763C704.346 273.067 704.13 274.219 703.698 275.219C703.274 276.219 702.65 276.999 701.826 277.559C701.002 278.119 699.99 278.399 698.79 278.399C696.982 278.399 695.602 277.799 694.65 276.599C693.706 275.399 693.234 273.795 693.234 271.787C693.234 270.475 693.446 269.323 693.87 268.331C694.302 267.331 694.93 266.551 695.754 265.991C696.586 265.431 697.606 265.151 698.814 265.151ZM698.814 266.987C697.774 266.987 696.99 267.379 696.462 268.163C695.934 268.939 695.67 270.147 695.67 271.787C695.67 273.411 695.93 274.615 696.45 275.399C696.97 276.175 697.75 276.563 698.79 276.563C699.83 276.563 700.61 276.175 701.13 275.399C701.65 274.615 701.91 273.403 701.91 271.763C701.91 270.131 701.65 268.927 701.13 268.151C700.61 267.375 699.838 266.987 698.814 266.987ZM708.273 278.099V265.451H710.253L710.421 267.155C710.941 266.507 711.573 266.011 712.317 265.667C713.069 265.323 713.817 265.151 714.561 265.151C715.777 265.151 716.673 265.483 717.249 266.147C717.825 266.803 718.113 267.719 718.113 268.895V278.099H715.809V270.311C715.809 269.511 715.761 268.863 715.665 268.367C715.577 267.871 715.389 267.511 715.101 267.287C714.813 267.055 714.377 266.939 713.793 266.939C713.105 266.939 712.481 267.151 711.921 267.575C711.361 267.999 710.913 268.455 710.577 268.943V278.099H708.273ZM733.103 263.987L733.775 266.027C733.247 266.195 732.679 266.303 732.071 266.351C731.471 266.399 730.807 266.423 730.079 266.423C731.575 267.095 732.323 268.159 732.323 269.615C732.323 270.863 731.891 271.891 731.027 272.699C730.171 273.507 728.983 273.911 727.463 273.911C727.063 273.911 726.723 273.895 726.443 273.863C726.163 273.823 725.895 273.763 725.639 273.683C725.231 273.971 725.027 274.355 725.027 274.835C725.027 275.115 725.139 275.355 725.363 275.555C725.587 275.747 726.023 275.843 726.671 275.843H728.915C729.787 275.843 730.563 275.995 731.243 276.299C731.931 276.603 732.471 277.019 732.863 277.547C733.255 278.067 733.451 278.655 733.451 279.311C733.451 280.567 732.915 281.531 731.843 282.203C730.779 282.883 729.259 283.223 727.283 283.223C725.891 283.223 724.795 283.079 723.995 282.791C723.203 282.503 722.639 282.075 722.303 281.507C721.975 280.939 721.811 280.227 721.811 279.371H723.887C723.887 279.843 723.979 280.231 724.163 280.535C724.347 280.847 724.683 281.075 725.171 281.219C725.659 281.371 726.363 281.447 727.283 281.447C728.643 281.447 729.623 281.279 730.223 280.943C730.823 280.607 731.123 280.115 731.123 279.467C731.123 278.899 730.871 278.467 730.367 278.171C729.863 277.883 729.219 277.739 728.435 277.739H726.215C725.079 277.739 724.243 277.499 723.707 277.019C723.179 276.539 722.915 275.979 722.915 275.339C722.915 274.451 723.379 273.703 724.307 273.095C722.875 272.343 722.159 271.171 722.159 269.579C722.159 268.715 722.375 267.951 722.807 267.287C723.247 266.615 723.855 266.091 724.631 265.715C725.407 265.339 726.299 265.151 727.307 265.151C728.355 265.151 729.215 265.103 729.887 265.007C730.559 264.911 731.139 264.775 731.627 264.599C732.115 264.423 732.607 264.219 733.103 263.987ZM727.319 266.783C726.367 266.783 725.659 267.047 725.195 267.575C724.739 268.095 724.511 268.763 724.511 269.579C724.511 270.411 724.747 271.087 725.219 271.607C725.691 272.127 726.407 272.387 727.367 272.387C728.215 272.387 728.863 272.139 729.311 271.643C729.759 271.147 729.983 270.451 729.983 269.555C729.983 267.707 729.095 266.783 727.319 266.783ZM761.933 261.563V272.711C761.933 273.831 761.705 274.819 761.249 275.675C760.801 276.531 760.157 277.199 759.317 277.679C758.485 278.159 757.489 278.399 756.329 278.399C755.161 278.399 754.161 278.159 753.329 277.679C752.497 277.199 751.861 276.531 751.421 275.675C750.989 274.819 750.773 273.831 750.773 272.711V261.563H753.149V272.531C753.149 275.123 754.209 276.419 756.329 276.419C758.465 276.419 759.533 275.123 759.533 272.531V261.563H761.933ZM770.263 276.563C771.183 276.563 771.907 276.395 772.435 276.059C772.971 275.723 773.239 275.267 773.239 274.691C773.239 274.323 773.167 274.011 773.023 273.755C772.887 273.491 772.599 273.251 772.159 273.035C771.727 272.811 771.071 272.587 770.191 272.363C769.327 272.147 768.575 271.895 767.935 271.607C767.303 271.319 766.811 270.943 766.459 270.479C766.115 270.015 765.943 269.415 765.943 268.679C765.943 267.607 766.391 266.751 767.287 266.111C768.183 265.471 769.371 265.151 770.851 265.151C771.891 265.151 772.795 265.291 773.563 265.571C774.331 265.843 774.987 266.179 775.531 266.579L774.547 268.079C774.059 267.759 773.523 267.495 772.939 267.287C772.363 267.071 771.683 266.963 770.899 266.963C769.963 266.963 769.295 267.107 768.895 267.395C768.503 267.675 768.307 268.047 768.307 268.511C768.307 268.863 768.403 269.155 768.595 269.387C768.795 269.611 769.135 269.819 769.615 270.011C770.095 270.195 770.759 270.403 771.607 270.635C772.431 270.859 773.151 271.123 773.767 271.427C774.383 271.731 774.859 272.131 775.195 272.627C775.539 273.115 775.711 273.759 775.711 274.559C775.711 275.463 775.451 276.199 774.931 276.767C774.411 277.327 773.735 277.739 772.903 278.003C772.079 278.267 771.199 278.399 770.263 278.399C769.111 278.399 768.119 278.231 767.287 277.895C766.463 277.559 765.771 277.147 765.211 276.659L766.483 275.195C766.971 275.603 767.535 275.935 768.175 276.191C768.823 276.439 769.519 276.563 770.263 276.563ZM782.926 276.179C782.926 275.571 783.134 275.055 783.55 274.631C783.974 274.207 784.494 273.995 785.11 273.995C785.742 273.995 786.27 274.207 786.694 274.631C787.118 275.055 787.33 275.571 787.33 276.179C787.33 276.795 787.118 277.319 786.694 277.751C786.27 278.183 785.742 278.399 785.11 278.399C784.494 278.399 783.974 278.183 783.55 277.751C783.134 277.319 782.926 276.795 782.926 276.179Z" fill="#C7CBDF"/>
</svg>
